<?xml version="1.0" standalone="no"?>
<!DOCTYPE svg PUBLIC "-//W3C//DTD SVG 20010904//EN"
 "http://www.w3.org/TR/2001/REC-SVG-20010904/DTD/svg10.dtd">
<svg version="1.0" xmlns="http://www.w3.org/2000/svg"
 width="1200.000000pt" height="848.000000pt" viewBox="0 0 1200.000000 848.000000"
 preserveAspectRatio="xMidYMid meet">
<metadata>
Created by potrace 1.16, written by Peter Selinger 2001-2019
</metadata>
<g transform="translate(0.000000,848.000000) scale(0.100000,-0.100000)"
fill="#000000" stroke="none">
<path d="M0 4240 l0 -4240 6000 0 6000 0 0 4240 0 4240 -6000 0 -6000 0 0
-4240z m4800 3101 c323 -73 760 -329 1123 -659 37 -34 70 -62 73 -62 2 0 60
48 127 106 783 677 1469 834 1793 412 232 -301 283 -881 141 -1588 l-23 -115
175 -61 c681 -234 1129 -564 1259 -926 23 -64 26 -88 26 -193 0 -110 -3 -127
-32 -203 -101 -268 -372 -515 -802 -728 -152 -75 -356 -159 -523 -214 -76 -25
-97 -36 -93 -47 13 -33 66 -337 82 -468 23 -191 23 -542 1 -685 -68 -428 -245
-678 -528 -745 -79 -18 -249 -19 -349 -1 -328 59 -762 307 -1169 669 l-74 66
-76 -68 c-377 -339 -785 -580 -1119 -663 -117 -29 -328 -31 -416 -4 -193 58
-348 210 -428 419 -108 280 -132 674 -67 1122 18 127 52 315 65 356 4 13 -25
27 -148 68 -466 158 -828 362 -1056 592 -100 103 -143 160 -193 264 -202 415
68 846 746 1190 149 76 375 168 548 225 53 17 97 37 97 43 0 7 -7 41 -16 77
-49 210 -84 526 -84 765 1 641 210 1014 602 1074 84 13 234 5 338 -18z"/>
<path d="M7330 7038 c-158 -21 -391 -124 -609 -269 -129 -85 -328 -240 -425
-330 l-59 -55 131 -147 c141 -159 292 -343 387 -474 33 -46 69 -85 80 -87 11
-2 110 -16 220 -31 186 -25 456 -73 602 -108 l61 -15 26 137 c50 260 60 362
60 611 0 249 -11 346 -55 481 -77 234 -197 317 -419 287z"/>
<path d="M4505 7033 c-121 -27 -200 -111 -253 -268 -43 -128 -54 -204 -59
-430 -4 -168 -1 -254 11 -365 15 -123 69 -437 78 -445 2 -2 59 10 128 26 150
35 491 92 649 110 80 9 118 18 127 28 7 9 61 79 120 156 118 155 272 339 384
458 l73 78 -58 52 c-198 178 -461 365 -647 460 -220 113 -433 167 -553 140z"/>
<path d="M5899 6043 c-93 -104 -164 -188 -241 -283 l-37 -46 375 0 c206 0 374
2 374 4 0 8 -235 283 -307 360 l-68 72 -96 -107z"/>
<path d="M5652 5380 c-78 -4 -176 -11 -217 -15 l-76 -7 -58 -86 c-87 -130
-198 -309 -291 -472 -97 -169 -280 -527 -280 -548 0 -22 204 -415 305 -587 48
-82 141 -232 207 -331 113 -172 120 -182 155 -187 21 -4 165 -12 321 -19 223
-9 343 -9 560 1 397 17 349 2 441 140 159 237 294 468 442 758 60 116 109 219
109 228 0 23 -172 361 -278 545 -86 150 -297 485 -337 536 -18 23 -29 26 -140
34 -171 14 -694 20 -863 10z m512 -490 c230 -58 419 -250 472 -476 20 -87 19
-240 -1 -319 -58 -222 -211 -385 -430 -461 -71 -25 -94 -28 -205 -28 -109 0
-136 4 -207 27 -159 53 -295 169 -372 316 -55 105 -74 186 -74 306 0 188 58
330 188 460 169 169 400 234 629 175z"/>
<path d="M4870 5303 c-14 -2 -132 -24 -262 -50 -192 -37 -238 -49 -238 -62 0
-28 85 -280 172 -511 9 -23 11 -22 42 35 136 248 209 376 272 478 75 120 75
120 14 110z"/>
<path d="M7106 5253 c74 -114 189 -311 265 -451 l77 -143 45 123 c75 205 139
410 130 419 -12 11 -499 109 -546 109 -4 0 9 -26 29 -57z"/>
<path d="M3890 5061 c-400 -141 -703 -312 -890 -500 -199 -200 -220 -337 -78
-525 158 -210 546 -440 1007 -598 63 -21 115 -37 117 -36 1 2 33 95 69 208 37
113 107 304 156 425 l88 221 -59 141 c-80 193 -149 379 -207 560 -26 84 -52
153 -58 152 -5 0 -71 -22 -145 -48z"/>
<path d="M7905 4963 c-60 -189 -128 -373 -205 -558 l-61 -147 51 -118 c95
-223 260 -684 260 -727 0 -7 2 -13 4 -13 12 0 277 95 352 126 269 111 546 278
682 412 128 126 182 222 182 326 0 214 -360 516 -861 722 -104 43 -333 124
-350 124 -4 0 -28 -66 -54 -147z"/>
<path d="M7412 3793 c-46 -92 -207 -376 -281 -493 -33 -52 -58 -96 -57 -98 4
-4 366 64 472 88 l92 21 -35 112 c-37 116 -112 329 -141 398 l-17 40 -33 -68z"/>
<path d="M4520 3768 c-53 -139 -153 -448 -147 -454 11 -12 369 -85 520 -107
l39 -6 -18 27 c-51 77 -221 364 -287 485 l-75 138 -32 -83z"/>
<path d="M4261 2878 c-57 -306 -76 -517 -68 -728 16 -377 116 -616 278 -664
111 -33 266 -13 441 58 144 58 292 142 457 259 141 101 391 309 391 327 0 3
-39 49 -86 101 -124 135 -281 324 -395 475 l-100 131 -107 13 c-198 23 -643
101 -768 136 -20 5 -23 -1 -43 -108z"/>
<path d="M7615 2969 c-138 -33 -443 -87 -620 -109 -93 -12 -173 -25 -176 -29
-3 -3 -50 -64 -104 -136 -126 -166 -201 -257 -352 -427 l-122 -137 72 -64
c132 -117 251 -208 400 -308 368 -245 684 -338 863 -253 167 79 263 442 234
882 -13 190 -56 485 -86 585 -6 20 -7 20 -109 -4z"/>
<path d="M5640 2780 c26 -37 214 -255 293 -340 l68 -73 26 24 c60 56 343 388
343 403 0 3 -168 7 -374 8 l-374 3 18 -25z"/>
</g>
</svg>
